<svg xmlns="http://www.w3.org/2000/svg" viewBox="0 0 100 100">
  <defs>
    <linearGradient id="purpleGradient" x1="0%" y1="0%" x2="100%" y2="100%">
      <stop offset="0%" style="stop-color:#a855f7;stop-opacity:1" />
      <stop offset="100%" style="stop-color:#ec4899;stop-opacity:1" />
    </linearGradient>
  </defs>
  
  <!-- Music note -->
  <path d="M 70 20 L 70 60 C 70 68 65 73 58 73 C 51 73 46 68 46 60 C 46 52 51 47 58 47 C 61 47 64 48 66 50 L 66 30 L 40 35 L 40 70 C 40 78 35 83 28 83 C 21 83 16 78 16 70 C 16 62 21 57 28 57 C 31 57 34 58 36 60 L 36 25 L 70 20 Z" 
        fill="url(#purpleGradient)" 
        stroke="url(#purpleGradient)" 
        stroke-width="2"/>
</svg>
